# xmcd
# 
# Track frame offsets:
#     150
#     12713
#     24730
#     36248
#     47004
#     57616
#     68965
#     79374
#     89957
#     102580
#     113425
#     125505
#     137232
#     149559
#     162289
#     172385
#     185095
#     197491
#     209869
#     223740
# 
# Disc length: 3150
# 
# Revision: 1
# Processed by: cddbd v1.5.2PL0 Copyright (c) Steve Scherf et al.
# Submitted via: fre:ac v1.0.31
# 
DISCID=500c4c14
DTITLE=Jimmy Reed - Big Boss Blues
DYEAR=2012
DGENRE=Blues
TTITLE0=Big Boss Man
TTITLE1=Bright Lights, Big City
TTITLE2=Close Together
TTITLE3=Baby What You Want Me To Do
TTITLE4=Found Love
TTITLE5=Hush-Hush
TTITLE6=I Told You Baby
TTITLE7=Take Out Some Insurance
TTITLE8=Caress Me Baby
TTITLE9=Down In Virginia
TTITLE10=Honest I Do
TTITLE11=Honey, Where You Going?
TTITLE12=Little Rain
TTITLE13=The Sun Is Shining
TTITLE14=Ain't That Lovin' You Baby
TTITLE15=Can't Stand To See You Go
TTITLE16=I Don't Go For That
TTITLE17=I Love My Baby
TTITLE18=You Don't Have To Go
TTITLE19=High And Lonesome
EXTD=
EXTT0=
EXTT1=
EXTT2=
EXTT3=
EXTT4=
EXTT5=
EXTT6=
EXTT7=
EXTT8=
EXTT9=
EXTT10=
EXTT11=
EXTT12=
EXTT13=
EXTT14=
EXTT15=
EXTT16=
EXTT17=
EXTT18=
EXTT19=
PLAYORDER=
